<svg width="34" height="34" viewBox="0 0 34 34" fill="none" xmlns="http://www.w3.org/2000/svg">
<path fill-rule="evenodd" clip-rule="evenodd" d="M31.875 17C31.875 13.0549 30.3078 9.27139 27.5182 6.48179C24.7286 3.69218 20.9451 2.125 17 2.125C13.0549 2.125 9.27139 3.69218 6.48179 6.48179C3.69218 9.27139 2.125 13.0549 2.125 17C2.125 20.9451 3.69218 24.7286 6.48179 27.5182C9.27139 30.3078 13.0549 31.875 17 31.875C20.9451 31.875 24.7286 30.3078 27.5182 27.5182C30.3078 24.7286 31.875 20.9451 31.875 17ZM34 17C34 12.4913 32.2089 8.1673 29.0208 4.97918C25.8327 1.79106 21.5087 -1.97081e-07 17 0C12.4913 1.97081e-07 8.1673 1.79107 4.97918 4.97918C1.79107 8.1673 -1.97081e-07 12.4913 0 17C1.97081e-07 21.5087 1.79107 25.8327 4.97919 29.0208C8.1673 32.2089 12.4913 34 17 34C21.5087 34 25.8327 32.2089 29.0208 29.0208C32.2089 25.8327 34 21.5087 34 17Z" fill="#FFA800"/>
<path fill-rule="evenodd" clip-rule="evenodd" d="M24.1274 16.2477C24.0287 16.1488 23.9115 16.0703 23.7824 16.0167C23.6533 15.9632 23.5149 15.9356 23.3752 15.9356C23.2354 15.9356 23.097 15.9632 22.968 16.0167C22.8389 16.0703 22.7216 16.1488 22.6229 16.2477L17.0002 21.8726L11.3774 16.2477C11.2786 16.149 11.1614 16.0706 11.0323 16.0171C10.9032 15.9637 10.7649 15.9361 10.6252 15.9361C10.4855 15.9361 10.3471 15.9637 10.2181 16.0171C10.089 16.0706 9.97172 16.149 9.87294 16.2477C9.77415 16.3465 9.69579 16.4638 9.64232 16.5929C9.58886 16.7219 9.56134 16.8603 9.56134 17C9.56134 17.1397 9.58886 17.278 9.64232 17.4071C9.69579 17.5362 9.77415 17.6535 9.87294 17.7522L16.2479 24.1272C16.3466 24.2262 16.4639 24.3047 16.593 24.3583C16.722 24.4118 16.8604 24.4394 17.0002 24.4394C17.1399 24.4394 17.2783 24.4118 17.4074 24.3583C17.5365 24.3047 17.6537 24.2262 17.7524 24.1272L24.1274 17.7522C24.2264 17.6535 24.3049 17.5363 24.3584 17.4072C24.412 17.2781 24.4396 17.1397 24.4396 17C24.4396 16.8602 24.412 16.7219 24.3584 16.5928C24.3049 16.4637 24.2264 16.3464 24.1274 16.2477Z" fill="#FFA800"/>
<path fill-rule="evenodd" clip-rule="evenodd" d="M17 9.5625C16.7182 9.5625 16.448 9.67444 16.2487 9.8737C16.0494 10.073 15.9375 10.3432 15.9375 10.625V21.25C15.9375 21.5318 16.0494 21.802 16.2487 22.0013C16.448 22.2006 16.7182 22.3125 17 22.3125C17.2818 22.3125 17.552 22.2006 17.7513 22.0013C17.9506 21.802 18.0625 21.5318 18.0625 21.25V10.625C18.0625 10.3432 17.9506 10.073 17.7513 9.8737C17.552 9.67444 17.2818 9.5625 17 9.5625Z" fill="#FFA800"/>
</svg>
