<svg width="49" height="35" viewBox="0 0 49 35" fill="none" xmlns="http://www.w3.org/2000/svg">
<path fill-rule="evenodd" clip-rule="evenodd" d="M35.3795 0.112069L34.9624 0.248989L34.0512 1.27246L33.1399 2.29588L33.3232 2.65301L33.5064 3.01014L33.2668 3.30528C33.135 3.46763 33.0038 3.59206 32.9753 3.5818C32.9467 3.57153 32.781 3.51708 32.607 3.46082L32.2906 3.35846L31.7556 3.4407L31.2206 3.5229L30.9033 3.82021L30.586 4.11753L30.6522 4.50318C30.6886 4.71526 30.7036 4.90081 30.6855 4.91548C30.6675 4.93015 30.553 5.02011 30.4313 5.11539L30.2098 5.28864L30.0374 5.15376C29.9425 5.07956 29.7353 4.92057 29.5768 4.8005L29.2887 4.58211L28.2105 4.97797C27.6174 5.19568 27.1051 5.38864 27.0721 5.40676C27.0391 5.42492 26.9762 5.50753 26.9324 5.59041C26.8798 5.68991 26.7577 5.79272 26.5731 5.89299L26.2933 6.04495L25.8779 5.77483C25.5009 5.52965 25.4539 5.48287 25.3685 5.2677L25.2745 5.03074L24.9051 4.92951C24.4185 4.79623 24.3721 4.79782 24.0955 4.95767C23.9658 5.0326 23.8399 5.09391 23.8157 5.09391C23.7914 5.09391 23.5414 4.92815 23.26 4.72556L22.7483 4.35718L21.5798 4.40073L20.4114 4.44423L19.4218 4.10627C18.8775 3.92039 18.4164 3.78556 18.3972 3.80668C18.3779 3.8278 18.3239 3.99333 18.2772 4.17452C18.2304 4.35572 18.1785 4.5257 18.1618 4.55227C18.145 4.57884 17.7059 4.65595 17.186 4.72366L16.2407 4.84677L15.764 5.1123L15.2874 5.37783L15.2967 5.67865C15.3057 5.96829 15.2939 6.00312 14.9801 6.61524C14.7117 7.13881 14.6484 7.30465 14.6215 7.55483L14.5888 7.85865L14.0783 8.34202L13.5678 8.82539L13.333 8.81023L13.0982 8.79506L12.9549 9.05977L12.8115 9.32448L12.5334 9.30141C12.2829 9.28066 12.1775 9.30464 11.4676 9.54401C10.835 9.75731 10.5774 9.82085 10.1602 9.8663C9.87436 9.89746 9.61791 9.93669 9.59024 9.95341C9.55488 9.97484 9.56248 10.0811 9.61591 10.3112L9.69187 10.6385L9.49599 11.088C9.38829 11.3353 9.27689 11.547 9.24853 11.5585C9.22012 11.5701 8.86765 11.7146 8.46523 11.8797L7.73355 12.1799L7.4581 12.1099L7.18265 12.04L6.90516 12.1773C6.75251 12.2528 6.61659 12.3146 6.60316 12.3146C6.58967 12.3146 6.57776 12.2175 6.57674 12.0988L6.5748 11.8831L6.10694 11.6174L5.63908 11.3516L5.28629 11.3703L4.93354 11.3891L4.1545 10.9599C3.71005 10.7151 3.35874 10.5481 3.33645 10.5712C3.31495 10.5934 3.12856 10.9097 2.92221 11.2741L2.54703 11.9366L2.51742 12.364C2.49128 12.7408 2.4563 12.8694 2.22209 13.4499L1.95642 14.1084L1.49041 14.3581C1.2341 14.4955 1.00926 14.623 0.990721 14.6414C0.972231 14.6599 1.05486 14.819 1.17437 14.9952C1.39352 15.3181 1.40909 15.4026 1.24949 15.4026C1.20153 15.4026 0.97858 15.5253 0.754058 15.6752C0.0790573 16.126 0.149727 15.9997 0.0934231 16.8558C0.0663601 17.268 0.0342458 17.6921 0.0221045 17.7983L0 17.9914L0.625648 18.2986L1.25134 18.6058L0.640894 19.3243L0.0303995 20.0428L0.267526 21.1627C0.397929 21.7787 0.550483 22.5878 0.606555 22.9607L0.708413 23.6388L0.60206 24.0506C0.499971 24.446 0.49733 24.5007 0.536581 25.4155L0.5775 26.3684L1.48115 26.6059C1.97815 26.7365 2.65533 26.9207 2.98593 27.0153L3.58711 27.1873L3.7886 27.7549C3.98601 28.3112 3.98893 28.3279 3.93369 28.5858C3.87739 28.8487 3.87553 28.8508 2.07681 30.7401C1.08651 31.7802 0.276284 32.6434 0.276284 32.6583C0.276284 32.6732 0.656835 32.8233 1.122 32.9919C1.58713 33.1605 2.89946 33.6401 4.03828 34.0577L6.10879 34.8168L8.0236 34.7198L9.93835 34.6227L10.9526 34.8289C11.8313 35.0076 11.9799 35.027 12.0648 34.9745C12.5652 34.6644 12.5671 34.6638 13.1615 34.5983C13.6196 34.5478 13.9473 34.5433 14.7038 34.5773L15.6645 34.6205L17.644 34.0669C19.4306 33.5673 19.6565 33.4934 19.9614 33.3092L20.2992 33.105L20.112 32.906C20.0091 32.7965 19.9248 32.6798 19.9248 32.6466C19.9248 32.6134 20.0096 32.3732 20.1131 32.1127L20.3015 31.6391L20.2023 31.1249L20.1031 30.6108L20.2965 29.9662C20.4028 29.6117 20.5115 29.3086 20.5379 29.2925C20.5644 29.2765 20.7031 29.2389 20.8463 29.2088C21.106 29.1543 21.1071 29.1533 21.4028 28.7293C21.7203 28.2739 21.8186 28.1709 22.1592 27.9372L22.3777 27.7872L22.5467 27.9187C22.6396 27.991 22.7506 28.0753 22.7933 28.106C22.836 28.1368 23.0787 28.1838 23.3326 28.2106L23.7943 28.2592L24.5808 27.9818C25.0134 27.8292 25.3771 27.6949 25.389 27.6832C25.4009 27.6716 25.3141 27.5654 25.1962 27.4474L24.9818 27.2327L25.775 26.665L26.5682 26.0974L27.2203 25.982C27.7866 25.8818 27.9146 25.8728 28.1942 25.9139L28.516 25.9611L28.7663 26.3017C28.918 26.5082 29.0468 26.6396 29.0932 26.6355C29.1353 26.6318 29.3116 26.6147 29.4848 26.5976L29.7998 26.5665L30.3305 25.9179C30.7355 25.4229 30.8609 25.2382 30.8599 25.1383C30.8592 25.0664 30.8093 24.6601 30.749 24.2354L30.6395 23.4634L30.938 23.0299L31.2366 22.5964L31.1861 22.3755C31.1371 22.1614 31.1399 22.1501 31.2765 22.0121C31.3894 21.8979 31.4178 21.8296 31.4195 21.6674C31.4214 21.4875 31.4494 21.4353 31.6741 21.1928L31.9266 20.9203L32.3556 20.9192L32.7845 20.9182L33.5607 20.4016C33.9875 20.1176 34.3368 19.8707 34.3368 19.8531C34.3368 19.8354 34.2032 19.5454 34.0399 19.2086L33.743 18.5963L33.2517 18.1689C32.8145 17.7884 32.7618 17.7264 32.7724 17.6052L32.7844 17.4689L33.8271 17.4824C34.8683 17.4958 34.8712 17.4955 35.8562 17.318C36.3987 17.2201 36.8565 17.1266 36.8734 17.1099C36.8904 17.0933 36.9385 16.8562 36.9803 16.5829L37.0563 16.086L36.7624 15.7218C36.6008 15.5214 36.4685 15.3485 36.4685 15.3376C36.4685 15.3266 36.5542 15.2704 36.659 15.2127C36.847 15.1092 36.8491 15.1051 36.8242 14.8989L36.799 14.6899L37.4099 14.1644C37.746 13.8753 38.0648 13.5983 38.1183 13.5488C38.1819 13.4901 38.2582 13.2928 38.3382 12.9799C38.4463 12.5571 38.4544 12.4746 38.4076 12.276C38.3593 12.0706 38.3633 12.0401 38.4543 11.9269C38.509 11.8586 38.5538 11.7877 38.5538 11.7693C38.5538 11.7509 38.4518 11.5544 38.3271 11.3327C38.1573 11.0308 38.0819 10.8335 38.027 10.5476C37.9477 10.134 37.9502 10.1381 37.4227 9.60282C37.1245 9.30028 37.1052 9.26903 37.1707 9.1941C37.2098 9.14946 37.4955 8.81359 37.8057 8.44774L38.3696 7.78249L38.5765 7.84352C38.7802 7.90356 38.7844 7.90265 38.8574 7.78212C38.8981 7.71482 39.2166 7.46373 39.5652 7.22418C40.1567 6.8176 40.2313 6.77986 40.6855 6.65716C41.0536 6.5577 41.2121 6.49036 41.3362 6.38073C41.4837 6.25044 41.5729 6.22187 42.2167 6.0988C42.8255 5.98241 43.1561 5.95089 44.4185 5.889C45.9003 5.81634 45.9045 5.81638 46.128 5.91025L46.352 6.00435L46.4266 5.90362C46.4677 5.84826 46.5133 5.78582 46.5281 5.76488C46.5428 5.74399 46.8449 5.60567 47.1994 5.45757C47.5539 5.30944 47.8505 5.16902 47.8585 5.14554C47.8665 5.12202 47.8095 5.00145 47.7317 4.87761C47.6539 4.75377 47.5903 4.63351 47.5903 4.6104C47.5903 4.58728 47.7863 4.45118 48.0258 4.30795C48.4584 4.04919 48.463 4.04773 48.7306 4.07857L49 4.10958L48.7576 3.83647L48.5152 3.56336L48.0919 3.53389C47.0846 3.46381 47.1098 3.45895 46.2559 3.89133C45.5807 4.2332 45.4725 4.27475 45.3247 4.24868C45.2327 4.23243 45.142 4.21049 45.1231 4.19996C45.1042 4.18942 45.161 4.07575 45.2492 3.94732C45.3375 3.8189 45.4013 3.70568 45.3912 3.69574C45.3811 3.68575 45.0532 3.65795 44.6626 3.63393L43.9525 3.59024L42.9076 4.0975L41.8625 4.60472L41.7027 4.90181L41.5428 5.1989L40.844 5.49836C40.2164 5.76729 40.0795 5.84781 39.5001 6.28822L38.8551 6.77864L38.6002 6.74934C38.46 6.73322 38.3428 6.71687 38.3399 6.71301C38.2257 6.56615 37.5344 5.21235 37.5344 5.13573C37.5345 5.07524 37.6387 4.35309 37.7661 3.53093C37.8935 2.70873 37.9874 2.02595 37.9749 2.01369C37.9623 2.00138 37.7538 2.0101 37.5115 2.03313C37.2692 2.0561 37.0709 2.0616 37.0709 2.04539C37.0709 2.02913 37.1126 1.81719 37.1636 1.57441C37.2146 1.33163 37.2559 1.09948 37.2554 1.05852C37.2547 0.999483 36.1002 0.132233 35.8499 0.00276039C35.8206 -0.0124529 35.6089 0.0367746 35.3795 0.112069Z" fill="#FFA800"/>
</svg>
