<svg width="30" height="36" viewBox="0 0 30 36" fill="none" xmlns="http://www.w3.org/2000/svg">
<path d="M15 0L28.695 2.988C29.0651 3.06878 29.3961 3.27103 29.6334 3.56139C29.8706 3.85175 29.9999 4.21285 30 4.58509V20.9275C29.9999 22.5437 29.5933 24.135 28.8165 25.56C28.0396 26.985 26.9164 28.1997 25.5467 29.0962L15 36L4.45333 29.0962C3.08358 28.2 1.9604 26.9857 1.18352 25.5609C0.406639 24.1362 0.000100261 22.5452 0 20.9291V4.58509C6.5063e-05 4.21285 0.129397 3.85175 0.366649 3.56139C0.603902 3.27103 0.934895 3.06878 1.305 2.988L15 0ZM22.42 11.8178L14.17 19.9162L9.45667 15.2885L7.1 17.6024L14.1717 24.5455L24.7783 14.1316L22.42 11.8178Z" fill="#FFA800"/>
</svg>
