<svg width="42" height="25" viewBox="0 0 42 25" fill="none" xmlns="http://www.w3.org/2000/svg">
<path d="M13.1251 17.8327C11.0867 17.8327 9.43483 19.4365 9.43483 21.4163C9.43483 23.3963 11.0867 25 13.1251 25C15.1641 25 16.8156 23.3963 16.8156 21.4163C16.8156 19.4365 15.1641 17.8327 13.1251 17.8327ZM13.1251 22.9743C12.239 22.9743 11.521 22.2769 11.521 21.4163C11.521 20.5553 12.239 19.8583 13.1251 19.8583C14.0113 19.8583 14.7298 20.5553 14.7298 21.4163C14.7298 22.2769 14.0113 22.9743 13.1251 22.9743Z" fill="#FFA800"/>
<path d="M32.5843 17.8327C30.5459 17.8327 28.8941 19.4365 28.8941 21.4163C28.8941 23.3963 30.5459 25 32.5843 25C34.6234 25 36.2748 23.3963 36.2748 21.4163C36.2748 19.4365 34.6234 17.8327 32.5843 17.8327ZM32.5843 22.9743C31.6982 22.9743 30.9803 22.2769 30.9803 21.4163C30.9803 20.5553 31.6982 19.8583 32.5843 19.8583C33.4706 19.8583 34.1891 20.5553 34.1891 21.4163C34.1891 22.2769 33.4706 22.9743 32.5843 22.9743Z" fill="#FFA800"/>
<path d="M17.2766 6.8211C17.2766 7.32328 16.8535 7.73411 16.3365 7.73411H3.36376C2.84669 7.73411 2.42378 7.32328 2.42378 6.8211V6.27329C2.42378 5.77121 2.84679 5.36037 3.36376 5.36037H16.3365C16.8536 5.36037 17.2766 5.77121 17.2766 6.27329V6.8211Z" fill="#FFA800"/>
<path d="M39.8153 12.1665C38.4623 11.8249 37.688 11.6101 37.1567 10.6136L35.3801 7.12002C34.8485 6.12348 33.4681 5.30803 32.3128 5.30803H29.8829C29.8829 5.30803 29.556 5.31465 29.556 4.99517C29.556 4.26265 29.556 2.06519 29.556 2.06519C29.556 0.929361 28.8941 0 27.4863 0H7.68227C5.66674 0 4.70982 0.929462 4.70982 2.06519V3.90135C4.70982 3.90135 4.70982 4.44746 5.25405 4.44746C8.02465 4.44746 16.3365 4.44746 16.3365 4.44746C17.3733 4.44746 18.2167 5.26651 18.2167 6.27339V6.8212C18.2167 7.82807 17.3733 8.64713 16.3365 8.64713H5.25405C5.25405 8.64713 4.70982 8.60321 4.70982 9.17378C4.70982 9.45716 4.70982 9.64739 4.70982 9.80522C4.70982 10.3074 5.41853 10.3071 5.41853 10.3071H12.8787C13.9154 10.3071 14.7589 11.1263 14.7589 12.133V12.6808C14.7589 13.6877 13.9154 14.5068 12.8787 14.5068H5.53623C5.53623 14.5068 4.70982 14.4919 4.70982 15.131C4.70982 16.2403 4.70982 19.5678 4.70982 19.5678C4.70982 20.7036 5.66674 21.633 6.83625 21.633C6.83625 21.633 7.71717 21.633 8.01081 21.633C8.27719 21.633 8.31643 21.4889 8.31643 21.4165C8.31643 18.8415 10.4737 16.7469 13.1252 16.7469C15.7768 16.7469 17.934 18.8417 17.934 21.4165C17.934 21.4892 17.9127 21.633 18.1164 21.633C20.4447 21.633 27.5954 21.633 27.5954 21.633C27.7833 21.633 27.7756 21.4792 27.7756 21.4165C27.7756 18.8415 29.9328 16.7469 32.5844 16.7469C35.2359 16.7469 37.3931 18.8417 37.3931 21.4165C37.3931 21.4892 37.3913 21.633 37.5089 21.633C38.5765 21.633 39.8987 21.633 39.8987 21.633C41.0545 21.633 42 20.7148 42 19.5923V15.7152C42.0001 12.4501 40.9386 12.4501 39.8153 12.1665ZM35.8168 11.9849C35.8168 11.9849 31.3545 11.9849 29.8358 11.9849C29.5887 11.9849 29.5559 11.7513 29.5559 11.7513V6.91245C29.5559 6.91245 29.5419 6.72664 29.8592 6.72664C30.2859 6.72664 31.5658 6.72664 31.5658 6.72664C32.5941 6.72664 33.8223 7.45224 34.2951 8.33898L35.8761 11.4475C35.9427 11.5727 36.0138 11.6838 36.09 11.7834C36.1462 11.8564 36.052 11.9849 35.8168 11.9849Z" fill="#FFA800"/>
<path d="M13.8187 12.6808C13.8187 13.183 13.3957 13.5939 12.8787 13.5939H0.939983C0.42291 13.5939 0 13.183 0 12.6808V12.133C0 11.631 0.423013 11.2201 0.939983 11.2201H12.8787C13.3958 11.2201 13.8187 11.631 13.8187 12.133V12.6808Z" fill="#FFA800"/>
</svg>
