<svg width="92" height="125" viewBox="0 0 92 125" fill="none" xmlns="http://www.w3.org/2000/svg">
<path fill-rule="evenodd" clip-rule="evenodd" d="M31.633 10.1943C31.633 14.8991 36.1131 18.8596 42.204 20.0343C42.2079 20.083 42.2122 20.1372 42.2168 20.1974C42.3073 21.3813 43.2734 21.6393 43.7451 21.6204V23.7832C26.6733 25.0127 15.2402 35.3092 11.9761 40.2041L11.7638 39.3219H10.3204L10.0374 40.0476C9.37702 39.763 7.8355 39.265 7.51852 39.7203C7.20154 40.1757 8.97136 41.9212 9.89589 42.737L9.16004 53.7222C7.43928 53.8133 7.61286 56.9096 7.91475 58.4464C5.96757 58.5375 6.3487 61.3682 6.78267 62.7722C6.10342 62.9543 5.74494 64.4038 5.6506 65.1058C2.25437 65.0603 2.99021 67.6671 3.78266 68.9762C2.95247 71.234 1.07699 76.5122 0.21661 79.563C-0.817672 83.2305 2.12671 83.213 3.26001 83.2063H3.26169C3.3062 83.206 3.34789 83.2058 3.38643 83.2058C4.20153 83.2058 5.2355 81.2326 5.6506 80.246C4.83666 85.8218 12.0693 100.224 15.1862 106.431L15.1864 106.431C15.5375 107.131 15.8365 107.726 16.0657 108.193C17.3118 110.73 16.9463 111.699 16.6393 112.512C16.3885 113.177 16.1767 113.738 16.9148 114.966C22.1975 123.456 38.4613 125.182 46 124.985C53.5387 125.182 69.8025 123.456 75.0852 114.966C75.8233 113.738 75.6115 113.177 75.3607 112.512C75.0537 111.699 74.6882 110.73 75.9343 108.193C76.1636 107.726 76.4625 107.131 76.8138 106.431C79.9307 100.224 87.1634 85.8218 86.3494 80.246C86.7645 81.2326 87.7985 83.2058 88.6136 83.2058L88.6297 83.2058C88.6429 83.2058 88.6565 83.2059 88.6704 83.2059C88.6927 83.206 88.716 83.2062 88.74 83.2063C89.8733 83.213 92.8177 83.2305 91.7834 79.563C90.923 76.5122 89.0475 71.234 88.2173 68.9762C89.0098 67.6671 89.7456 65.0603 86.3494 65.1058C86.2551 64.4038 85.8966 62.9543 85.2173 62.7722C85.6513 61.3682 86.0324 58.5375 84.0853 58.4464C84.3871 56.9096 84.5607 53.8133 82.84 53.7222L82.1041 42.737C83.0287 41.9212 84.7985 40.1757 84.4815 39.7203C84.1645 39.265 82.623 39.763 81.9626 40.0476L81.6796 39.3219H80.2362L80.0239 40.2041C76.7598 35.3092 65.3267 25.0127 48.2549 23.7832V21.6204C48.7266 21.6393 49.6927 21.3813 49.7832 20.1974C49.7883 20.1311 49.7929 20.0721 49.7971 20.0197C55.8498 18.827 60.2932 14.8798 60.2932 10.1943C60.2932 4.56416 53.8774 0 45.9631 0C38.0488 0 31.633 4.56416 31.633 10.1943ZM45.9631 15.0028C44.9929 15.4794 43.8653 15.7523 42.6623 15.7523C39.0298 15.7523 36.0851 13.2639 36.0851 10.1943C36.0851 7.12473 39.0298 4.63632 42.6623 4.63632C43.8653 4.63632 44.9929 4.90925 45.9631 5.38583C46.9333 4.90925 48.0608 4.63632 49.2638 4.63632C52.8964 4.63632 55.8411 7.12473 55.8411 10.1943C55.8411 13.2639 52.8964 15.7523 49.2638 15.7523C48.0608 15.7523 46.9333 15.4794 45.9631 15.0028ZM13.2355 53.4376L12.4006 43.5054C13.1887 43.6389 13.4341 43.4562 13.9554 43.068C14.3233 42.7941 14.8288 42.4178 15.7596 41.978L15.7598 41.9779C16.4567 41.6487 17.3155 41.2429 18.3865 40.7449C27.1261 35.5539 38.7828 34.1803 43.5187 34.1424V35.11L41.7073 36.1345V39.4357C26.4809 40.7449 16.2355 44.6153 14.5374 50.1364V53.4376H13.2355ZM78.7645 53.4376L79.5994 43.5054C78.8113 43.6389 78.5659 43.4562 78.0446 43.068C77.6767 42.7941 77.1712 42.4178 76.2404 41.978L76.2397 41.9777L76.2374 41.9766C75.541 41.6476 74.683 41.2423 73.6135 40.7449C64.8739 35.5539 53.2172 34.1803 48.4813 34.1424V35.11L50.2927 36.1345V39.4357C65.5191 40.7449 75.7645 44.6153 77.4626 50.1364V53.4376H78.7645ZM74.3477 63.1257V68.4292H72.588V64.4861L70.4068 68.4292H68.6564V63.1257H68.2531V61.9032H70.8284V63.1257H70.416V65.828L72.588 61.9032H74.7601V63.1257H74.3477ZM73.1104 60.0557C73.086 60.3131 73.0249 60.5398 72.9271 60.7359C72.8294 60.9258 72.7041 61.0821 72.5514 61.2047C72.4047 61.3272 72.2337 61.4191 72.0382 61.4804C71.8488 61.5417 71.6441 61.5723 71.4241 61.5723C71.2103 61.5723 71.0056 61.5417 70.8101 61.4804C70.6207 61.4191 70.4496 61.3272 70.2969 61.2047C70.1441 61.0821 70.0189 60.9258 69.9211 60.7359C69.8234 60.5398 69.7623 60.3131 69.7378 60.0557H70.7734C70.7734 60.2886 70.8315 60.4479 70.9476 60.5337C71.0698 60.6195 71.2286 60.6624 71.4241 60.6624C71.6196 60.6624 71.7785 60.6195 71.9007 60.5337C72.0229 60.4479 72.087 60.2886 72.0931 60.0557H73.1104ZM52.6256 63.429L52.6715 63.7783H53.6887L53.8079 62.0962C53.5391 62.0105 53.2122 61.9431 52.8273 61.894C52.4485 61.8389 52.0574 61.8113 51.6542 61.8113C51.4648 61.8113 51.2662 61.8205 51.0585 61.8389C50.8569 61.8573 50.6522 61.8971 50.4445 61.9584C50.2428 62.0135 50.0504 62.0993 49.8671 62.2157C49.6838 62.326 49.5219 62.4762 49.3813 62.6661C49.2408 62.8499 49.1278 63.0797 49.0423 63.3555C48.9628 63.6251 48.9231 63.9499 48.9231 64.3298V65.8188C48.9231 66.4255 49.0025 66.9065 49.1614 67.2619C49.3264 67.6173 49.5433 67.89 49.8121 68.08C50.087 68.2699 50.3986 68.3925 50.7469 68.4476C51.0951 68.5028 51.4526 68.5303 51.8191 68.5303C52.2041 68.5303 52.5676 68.4752 52.9097 68.3649C53.2519 68.2546 53.5879 68.1229 53.9179 67.9697L53.4963 66.9494C53.3497 66.9984 53.2183 67.0444 53.1022 67.0873C52.9922 67.124 52.8761 67.1577 52.7539 67.1884C52.6318 67.2129 52.4973 67.2343 52.3507 67.2527C52.2102 67.265 52.036 67.2711 51.8283 67.2711C51.6145 67.2711 51.4403 67.2435 51.3059 67.1884C51.1715 67.1271 51.0646 67.0291 50.9852 66.8942C50.9057 66.7594 50.8507 66.5817 50.8202 66.3611C50.7896 66.1405 50.7744 65.8679 50.7744 65.5431V64.8445C50.7744 64.5443 50.7866 64.2838 50.811 64.0632C50.8416 63.8365 50.8905 63.6496 50.9577 63.5026C51.031 63.3555 51.1287 63.2452 51.2509 63.1717C51.3792 63.0981 51.5412 63.0614 51.7367 63.0614C51.9994 63.0614 52.1949 63.1012 52.3232 63.1808C52.4576 63.2544 52.5584 63.3371 52.6256 63.429ZM17.1007 67.2068V68.4292H18.8603L19.2635 67.2068H21.0323L21.4447 68.4292H23.2135V67.2068H22.7919L21.1423 61.9032H19.2269L17.5223 67.2068H17.1007ZM20.6932 65.9383H19.6485L20.2075 64.1368L20.6932 65.9383ZM27.5212 62.7397V61.9032H25.8624V62.7397C25.6058 62.7458 25.3522 62.7795 25.1017 62.8408C24.8512 62.902 24.6252 63.0123 24.4235 63.1717C24.228 63.3248 24.0692 63.5393 23.947 63.8151C23.8248 64.0847 23.7637 64.434 23.7637 64.8629V65.4971C23.7637 65.9322 23.8278 66.2845 23.9561 66.5542C24.0906 66.8238 24.2586 67.0352 24.4602 67.1884C24.6679 67.3354 24.894 67.4396 25.1384 67.5009C25.3889 67.556 25.6302 67.5867 25.8624 67.5928V68.4292H27.5212V67.5928C27.7534 67.5867 27.9917 67.556 28.2361 67.5009C28.4866 67.4457 28.7157 67.3446 28.9234 67.1976C29.1311 67.0444 29.2992 66.833 29.4275 66.5634C29.5619 66.2937 29.6291 65.9383 29.6291 65.4971V64.8629C29.6291 64.434 29.568 64.0816 29.4458 63.8059C29.3236 63.5301 29.1617 63.3157 28.9601 63.1625C28.7584 63.0031 28.5324 62.8959 28.2819 62.8408C28.0314 62.7795 27.7778 62.7458 27.5212 62.7397ZM28.1077 64.5872C28.1444 64.7465 28.1627 64.9487 28.1627 65.1938V65.2673C28.1627 65.5063 28.1414 65.6993 28.0986 65.8464C28.0558 65.9935 28.0008 66.1068 27.9336 66.1865C27.8725 66.2662 27.8023 66.3213 27.7228 66.3519C27.6495 66.3765 27.5823 66.3887 27.5212 66.3887V63.9346C27.6006 63.9346 27.677 63.956 27.7503 63.9989C27.8298 64.0357 27.9 64.1031 27.9611 64.2011C28.0222 64.293 28.0711 64.4217 28.1077 64.5872ZM25.2942 65.8464C25.2514 65.6993 25.23 65.5063 25.23 65.2673V65.1938C25.23 64.9487 25.2453 64.7465 25.2759 64.5872C25.3125 64.4278 25.3614 64.2992 25.4225 64.2011C25.4836 64.1031 25.5508 64.0357 25.6241 63.9989C25.6974 63.956 25.7769 63.9346 25.8624 63.9346V66.3887C25.7952 66.3887 25.7249 66.3765 25.6516 66.3519C25.5783 66.3213 25.5111 66.2662 25.45 66.1865C25.3889 66.1068 25.337 65.9935 25.2942 65.8464ZM30.3683 61.9032H35.1797V63.5209H34.1441V63.3555C34.1441 63.2881 34.1319 63.2391 34.1075 63.2084C34.0891 63.1717 34.0586 63.1441 34.0158 63.1257H32.5403V67.2068H32.9436V68.4292H30.3683V67.2068H30.7807V63.1257H30.3683V61.9032ZM35.5911 67.2068V68.4292H37.3508L37.754 67.2068H39.5228L39.9352 68.4292H41.704V67.2068H41.2824L39.6328 61.9032H37.7174L36.0127 67.2068H35.5911ZM39.1837 65.9383H38.1389L38.698 64.1368L39.1837 65.9383ZM45.6359 63.1257V61.9032H48.2112V63.1257H47.808V67.2068H48.2112V68.4292H45.6359V67.2068H46.0483V65.7729H44.4079V67.2068H44.8111V68.4292H42.2358V67.2068H42.6482V63.1257H42.2358V61.9032H44.8111V63.1257H44.4079V64.5228H46.0483V63.1257H45.6359ZM60.4985 61.9032V63.1257H60.4619C60.3886 63.138 60.2908 63.1625 60.1686 63.1992C60.0525 63.236 59.9303 63.3126 59.802 63.429L59.7287 63.5117L58.0516 65.1387L59.8937 66.8023C60.132 67.0168 60.3183 67.1669 60.4527 67.2527C60.5871 67.3324 60.691 67.3783 60.7643 67.3906L60.3061 68.4017L60.1869 68.4568C60.0831 68.4875 59.9762 68.5028 59.8662 68.5028C59.7073 68.5089 59.524 68.4721 59.3163 68.3925C59.1086 68.3067 58.8703 68.1382 58.6014 67.8869L56.8876 66.2692L56.7319 66.4255V68.4292H54.9722V63.1257H54.5598V61.9032H56.7227V64.1552L59.023 61.9032H60.4985ZM67.313 68.4292V63.1257H67.7255V61.9032H65.5534L63.3814 65.828V63.1257H63.7938V61.9032H61.2185V63.1257H61.6218V68.4292H63.3722L65.5534 64.4861V68.4292H67.313ZM24.9483 74.3103V71.6616H21.7513L16.7673 76.5408V71.6616H12.0811V74.3103H12.9746V85.8013H16.7871V81.4598L17.1247 81.1213L20.8379 84.6263C21.4204 85.1707 21.9367 85.5358 22.3868 85.7217C22.8368 85.8943 23.234 85.9739 23.5782 85.9607C23.8164 85.9607 24.0481 85.9275 24.2731 85.8611L24.5313 85.7416L25.5241 83.5509C25.3653 83.5244 25.1402 83.4248 24.849 83.2522C24.5578 83.0663 24.154 82.741 23.6377 82.2764L19.6465 78.6717L23.2803 75.1468L23.4392 74.9675C23.7172 74.7153 23.9819 74.5493 24.2334 74.4696C24.4982 74.39 24.71 74.3369 24.8689 74.3103H24.9483ZM26.1509 85.8013V83.1526H27.0643L30.7576 71.6616H34.9077L38.4819 83.1526H39.3954V85.8013H35.563L34.6694 83.1526H30.8371L29.9634 85.8013H26.1509ZM31.6711 80.4043H33.9347L32.8823 76.501L31.6711 80.4043ZM46.5643 74.5493C46.829 74.7352 46.9614 75.1335 46.9614 75.7442C46.9614 76.0363 46.9151 76.2753 46.8224 76.4612C46.7298 76.6337 46.604 76.7732 46.4452 76.8794C46.2995 76.9723 46.1341 77.0387 45.9487 77.0785C45.7634 77.1183 45.5714 77.1449 45.3729 77.1582H44.102L44.6779 79.5878H45.492C45.9421 79.5878 46.2995 79.6608 46.5643 79.8069C46.829 79.9397 47.0276 80.1056 47.16 80.3048C47.3056 80.4906 47.3983 80.6964 47.438 80.9221C47.4777 81.1346 47.4976 81.3204 47.4976 81.4798C47.4976 81.9046 47.4115 82.2432 47.2394 82.4954C47.0806 82.7477 46.8754 82.9402 46.6239 83.073C46.3856 83.1925 46.1274 83.2721 45.8494 83.3119C45.5714 83.3385 45.3133 83.3518 45.075 83.3518C44.6249 83.3518 44.241 83.3319 43.9233 83.292C43.6189 83.2522 43.3342 83.1991 43.0695 83.1327C42.818 83.0663 42.5664 82.9867 42.3149 82.8937C42.0634 82.8008 41.7788 82.7012 41.4611 82.595L40.5477 84.8056C41.2625 85.1375 41.9906 85.4229 42.7319 85.6619C43.4732 85.9009 44.2609 86.0204 45.0949 86.0204C45.9553 86.0204 46.7629 85.9341 47.5174 85.7615C48.272 85.5889 48.9272 85.3366 49.4832 85.0047C50.0392 84.6595 50.4761 84.2413 50.7938 83.7501C51.1247 83.2588 51.2902 82.6946 51.2902 82.0573V81.2209C51.2902 80.4243 51.085 79.7671 50.6747 79.2493C50.2775 78.7315 49.7612 78.3133 49.1258 77.9946C49.5891 77.7158 49.9664 77.4038 50.2577 77.0586C50.5621 76.7134 50.7144 76.3217 50.7144 75.8836V75.0671C50.7144 74.2307 50.529 73.5801 50.1584 73.1154C49.7877 72.6375 49.3244 72.2856 48.7684 72.0599C48.2256 71.8342 47.6366 71.6948 47.0011 71.6417C46.379 71.5886 45.8097 71.562 45.2935 71.562C44.8698 71.562 44.433 71.5952 43.9829 71.6616C43.5328 71.728 43.1291 71.8143 42.7716 71.9205L40.6072 72.498L41.4809 75.8836L43.7446 75.2862C43.6784 75.087 43.6453 74.9211 43.6453 74.7883C43.6453 74.536 43.7843 74.39 44.0623 74.3502C44.3536 74.297 44.7772 74.2639 45.3332 74.2506C45.8892 74.2506 46.2995 74.3502 46.5643 74.5493ZM52.5426 85.8013V83.1526H53.456L57.1494 71.6616H61.2994L64.8737 83.1526H65.7871V85.8013H61.9547L61.0612 83.1526H57.2288L56.3551 85.8013H52.5426ZM58.0628 80.4043H60.3265L59.274 76.501L58.0628 80.4043ZM74.3063 71.6616V74.3103H75.1998V77.3374H71.6455V74.3103H72.5192V71.6616H66.9394V74.3103H67.833V83.1526H66.9394V85.8013H72.5192V83.1526H71.6455V80.0459H75.1998V83.1526H74.3063V85.8013H79.886V83.1526H79.0123V74.3103H79.886V71.6616H74.3063ZM36.2151 89.2022V91.0359H36.1601C36.0501 91.0543 35.9035 91.0911 35.7202 91.1462C35.5461 91.2014 35.3628 91.3163 35.1703 91.4909L35.0603 91.615L32.5446 94.0554L35.3078 96.5509C35.6652 96.8726 35.9447 97.0978 36.1464 97.2265C36.348 97.346 36.5038 97.4149 36.6138 97.4333L35.9264 98.9499L35.7477 99.0326C35.5919 99.0786 35.4315 99.1015 35.2665 99.1015C35.0283 99.1107 34.7533 99.0556 34.4417 98.9361C34.1301 98.8074 33.7727 98.5546 33.3695 98.1778L30.7988 95.7512L30.5651 95.9856V98.9912H27.9256V91.0359H27.307V89.2022H30.5513V92.5801L34.0018 89.2022H36.2151ZM46.4369 98.9912V91.0359H47.0555V89.2022H43.7974L40.5394 95.0894V91.0359H41.158V89.2022H37.2951V91.0359H37.9V98.9912H40.5256L43.7974 93.0765V98.9912H46.4369ZM47.847 91.0359V89.2022H54.913V91.0359H51.1051V93.1316H53.6895V95.0067H51.1051V97.1575H54.913V98.9912H48.4794V91.0359H47.847ZM56.1973 89.2022V91.0359H56.8159V98.9912H60.3214C60.7246 98.9912 61.1645 98.9683 61.6411 98.9223C62.1268 98.8764 62.5759 98.7798 62.9883 98.6328C63.4099 98.4765 63.7581 98.2559 64.0331 97.971C64.3172 97.686 64.4592 97.3 64.4592 96.8129V95.8202C64.4592 95.3238 64.3447 94.9102 64.1155 94.5793C63.8956 94.2484 63.5932 93.9818 63.2082 93.7796C63.4648 93.6142 63.6711 93.4212 63.8269 93.2006C63.9827 92.98 64.0606 92.7134 64.0606 92.4009V91.5599C64.0606 90.9808 63.9277 90.535 63.6619 90.2225C63.3961 89.9008 63.0616 89.6664 62.6584 89.5193C62.2551 89.3631 61.8106 89.2711 61.3249 89.2436C60.8483 89.216 60.3993 89.2022 59.9777 89.2022H56.1973ZM61.7785 95.6133C61.8152 95.7604 61.8335 95.8891 61.8335 95.9994C61.8335 96.2843 61.7877 96.5049 61.6961 96.6612C61.6044 96.8174 61.4853 96.9323 61.3386 97.0059C61.192 97.0794 61.0316 97.1254 60.8575 97.1437C60.6925 97.1529 60.5367 97.1575 60.3901 97.1575H59.4553V94.7034H60.4451C60.7475 94.7034 60.9904 94.7493 61.1737 94.8413C61.357 94.9332 61.4944 95.0481 61.5861 95.1859C61.6869 95.3146 61.7511 95.4571 61.7785 95.6133ZM61.1874 91.2152C61.3707 91.3347 61.4624 91.6058 61.4624 92.0286C61.4624 92.2492 61.4211 92.4239 61.3386 92.5525C61.2653 92.6812 61.1691 92.7823 61.05 92.8559C60.9308 92.9202 60.7979 92.9616 60.6513 92.98C60.5047 92.9983 60.358 93.0075 60.2114 93.0075H59.4553V91.0221H60.3351C60.72 91.0221 61.0041 91.0865 61.1874 91.2152Z" fill="#FFA800"/>
</svg>
