<svg width="25" height="24" viewBox="0 0 25 24" fill="none" xmlns="http://www.w3.org/2000/svg">
<path d="M19.7575 14.8671C19.2654 14.3555 18.6719 14.082 18.0429 14.082C17.419 14.082 16.8204 14.3505 16.308 14.8621L14.705 16.4577C14.5732 16.3868 14.4413 16.3209 14.3144 16.2551C14.1318 16.1639 13.9594 16.0778 13.8122 15.9866C12.3107 15.0343 10.9461 13.7933 9.63738 12.1876C9.00328 11.3872 8.57717 10.7135 8.26774 10.0297C8.6837 9.64982 9.06923 9.25472 9.44461 8.87482C9.58665 8.73299 9.72869 8.58609 9.87072 8.44426C10.936 7.38053 10.936 6.00275 9.87072 4.93903L8.48586 3.55618C8.32861 3.39916 8.16628 3.23706 8.0141 3.07497C7.70973 2.76092 7.39015 2.43674 7.06042 2.13281C6.56837 1.64654 5.97993 1.38821 5.36105 1.38821C4.74218 1.38821 4.1436 1.64654 3.63632 2.13281C3.63125 2.13788 3.63125 2.13788 3.62618 2.14294L1.90144 3.88037C1.25213 4.52873 0.881823 5.31893 0.800659 6.23576C0.678913 7.71485 1.11517 9.09263 1.44997 9.99426C2.27175 12.2078 3.49936 14.2593 5.33062 16.4577C7.55248 19.1069 10.2258 21.1989 13.2796 22.6729C14.4463 23.225 16.0037 23.8784 17.7436 23.9899C17.8501 23.9949 17.9617 24 18.0632 24C19.235 24 20.2191 23.5796 20.9902 22.7438C20.9953 22.7337 21.0054 22.7286 21.0105 22.7185C21.2742 22.3993 21.5786 22.1106 21.8982 21.8016C22.1163 21.594 22.3395 21.3761 22.5577 21.1482C23.0599 20.6265 23.3236 20.0186 23.3236 19.3956C23.3236 18.7675 23.0548 18.1647 22.5424 17.6582L19.7575 14.8671ZM21.5735 20.201C21.5685 20.206 21.5685 20.201 21.5735 20.201C21.3757 20.4137 21.1728 20.6062 20.9547 20.819C20.6249 21.133 20.2901 21.4623 19.9756 21.832C19.4633 22.3791 18.8596 22.6374 18.0683 22.6374C17.9922 22.6374 17.911 22.6374 17.8349 22.6324C16.3283 22.5361 14.9282 21.9485 13.8782 21.4471C11.007 20.0591 8.48586 18.0887 6.39082 15.5915C4.66102 13.5096 3.50443 11.5848 2.73845 9.51812C2.26668 8.25684 2.09421 7.27416 2.1703 6.3472C2.22103 5.75455 2.4493 5.26321 2.87034 4.84279L4.60014 3.11549C4.84871 2.88249 5.11249 2.75585 5.3712 2.75585C5.69078 2.75585 5.94949 2.94834 6.11182 3.11043C6.11689 3.11549 6.12197 3.12056 6.12704 3.12563C6.43648 3.41435 6.73069 3.71321 7.04013 4.03233C7.19739 4.19442 7.35971 4.35651 7.52204 4.52367L8.9069 5.90651C9.44461 6.44344 9.44461 6.93985 8.9069 7.47678C8.75979 7.62367 8.61775 7.77057 8.47064 7.9124C8.04453 8.34802 7.63872 8.75325 7.19739 9.14835C7.18724 9.15848 7.1771 9.16354 7.17202 9.17367C6.73577 9.60929 6.81693 10.0348 6.90824 10.3235C6.91331 10.3387 6.91839 10.3539 6.92346 10.3691C7.28362 11.2403 7.7909 12.0609 8.56195 13.0385L8.56703 13.0436C9.96711 14.7658 11.4433 16.1082 13.0716 17.1364C13.2796 17.2681 13.4927 17.3745 13.6956 17.4758C13.8782 17.567 14.0507 17.6531 14.1978 17.7443C14.2181 17.7544 14.2384 17.7696 14.2586 17.7797C14.4311 17.8658 14.5934 17.9064 14.7608 17.9064C15.1819 17.9064 15.4457 17.643 15.5319 17.5569L17.2668 15.8245C17.4393 15.6523 17.7132 15.4446 18.0328 15.4446C18.3473 15.4446 18.606 15.6421 18.7632 15.8144C18.7683 15.8194 18.7683 15.8194 18.7734 15.8245L21.5685 18.6155C22.091 19.1322 22.091 19.664 21.5735 20.201Z" fill="#FFA800"/>
<path d="M13.7514 5.70896C15.0804 5.93184 16.2878 6.55994 17.2516 7.52236C18.2154 8.48478 18.8393 9.69034 19.0676 11.0175C19.1234 11.3518 19.4126 11.5848 19.7423 11.5848C19.7829 11.5848 19.8184 11.5797 19.859 11.5747C20.2343 11.5139 20.4829 11.1593 20.422 10.7845C20.1481 9.17874 19.3872 7.71485 18.2255 6.55488C17.0639 5.39491 15.5979 4.63511 13.9898 4.36158C13.6144 4.30079 13.2644 4.54899 13.1984 4.91877C13.1325 5.28854 13.376 5.64818 13.7514 5.70896Z" fill="#FFA800"/>
<path d="M24.7693 10.5869C24.3179 7.94279 23.07 5.53674 21.1525 3.62203C19.235 1.70732 16.8254 0.461243 14.1775 0.0104253C13.8071 -0.0554245 13.4571 0.197844 13.3912 0.567616C13.3303 0.942453 13.5789 1.29196 13.9543 1.35781C16.3182 1.75798 18.4741 2.87742 20.1887 4.58445C21.9032 6.29655 23.0192 8.44933 23.42 10.8098C23.4758 11.1441 23.7649 11.3771 24.0947 11.3771C24.1353 11.3771 24.1708 11.372 24.2113 11.367C24.5817 11.3113 24.8353 10.9567 24.7693 10.5869Z" fill="#FFA800"/>
</svg>
